<mxfile host="app.diagrams.net" agent="Mozilla/5.0 (Windows NT 10.0; Win64; x64) AppleWebKit/537.36 (KHTML, like Gecko) Chrome/121.0.0.0 Safari/537.36" version="25.0.3">
  <diagram name="Page-1" id="Aj1uoAEPTinfr-xkjNWC">
    <mxGraphModel dx="2229" dy="669" grid="1" gridSize="10" guides="1" tooltips="1" connect="1" arrows="1" fold="1" page="1" pageScale="1" pageWidth="850" pageHeight="1100" math="0" shadow="0">
      <root>
        <mxCell id="0" />
        <mxCell id="1" parent="0" />
        <mxCell id="Kvp4EdlV-CzY8GOnAylV-1" value="" style="swimlane;startSize=0;" vertex="1" parent="1">
          <mxGeometry x="250" y="70" width="420" height="320" as="geometry" />
        </mxCell>
        <mxCell id="Kvp4EdlV-CzY8GOnAylV-3" value="LoggerViewerServer" style="rounded=0;whiteSpace=wrap;html=1;" vertex="1" parent="Kvp4EdlV-CzY8GOnAylV-1">
          <mxGeometry x="55" y="20" width="120" height="60" as="geometry" />
        </mxCell>
        <mxCell id="Kvp4EdlV-CzY8GOnAylV-9" value="LoggerViewerClient" style="rounded=0;whiteSpace=wrap;html=1;" vertex="1" parent="Kvp4EdlV-CzY8GOnAylV-1">
          <mxGeometry x="240" y="160" width="120" height="60" as="geometry" />
        </mxCell>
        <mxCell id="Kvp4EdlV-CzY8GOnAylV-10" value="" style="endArrow=classic;html=1;rounded=0;" edge="1" parent="Kvp4EdlV-CzY8GOnAylV-1">
          <mxGeometry width="50" height="50" relative="1" as="geometry">
            <mxPoint x="160" y="120" as="sourcePoint" />
            <mxPoint x="190" y="150" as="targetPoint" />
          </mxGeometry>
        </mxCell>
        <mxCell id="Kvp4EdlV-CzY8GOnAylV-11" value="pushes Logs to Server" style="edgeLabel;html=1;align=center;verticalAlign=middle;resizable=0;points=[];" vertex="1" connectable="0" parent="Kvp4EdlV-CzY8GOnAylV-10">
          <mxGeometry x="-0.2213" y="-1" relative="1" as="geometry">
            <mxPoint as="offset" />
          </mxGeometry>
        </mxCell>
        <mxCell id="Kvp4EdlV-CzY8GOnAylV-12" value="" style="endArrow=classic;html=1;rounded=0;" edge="1" parent="Kvp4EdlV-CzY8GOnAylV-1">
          <mxGeometry width="50" height="50" relative="1" as="geometry">
            <mxPoint x="360" y="200" as="sourcePoint" />
            <mxPoint x="490" y="140" as="targetPoint" />
          </mxGeometry>
        </mxCell>
        <mxCell id="Kvp4EdlV-CzY8GOnAylV-14" value="displays" style="edgeLabel;html=1;align=center;verticalAlign=middle;resizable=0;points=[];" vertex="1" connectable="0" parent="Kvp4EdlV-CzY8GOnAylV-12">
          <mxGeometry x="-0.2286" y="4" relative="1" as="geometry">
            <mxPoint as="offset" />
          </mxGeometry>
        </mxCell>
        <mxCell id="Kvp4EdlV-CzY8GOnAylV-15" value="" style="endArrow=classic;html=1;rounded=0;entryX=1;entryY=1;entryDx=0;entryDy=0;" edge="1" parent="Kvp4EdlV-CzY8GOnAylV-1" target="Kvp4EdlV-CzY8GOnAylV-3">
          <mxGeometry width="50" height="50" relative="1" as="geometry">
            <mxPoint x="300" y="160" as="sourcePoint" />
            <mxPoint x="350" y="110" as="targetPoint" />
          </mxGeometry>
        </mxCell>
        <mxCell id="Kvp4EdlV-CzY8GOnAylV-16" value="initial connection" style="edgeLabel;html=1;align=center;verticalAlign=middle;resizable=0;points=[];" vertex="1" connectable="0" parent="Kvp4EdlV-CzY8GOnAylV-15">
          <mxGeometry x="0.1422" y="-2" relative="1" as="geometry">
            <mxPoint as="offset" />
          </mxGeometry>
        </mxCell>
        <mxCell id="Kvp4EdlV-CzY8GOnAylV-2" value="&amp;lt;&amp;lt;actor&amp;gt;&amp;gt;&lt;br&gt;&lt;br&gt;&lt;b&gt;LoggerServer&lt;/b&gt;" style="html=1;align=center;verticalAlign=middle;dashed=0;whiteSpace=wrap;" vertex="1" parent="1">
          <mxGeometry x="-60" y="180" width="160" height="70" as="geometry" />
        </mxCell>
        <mxCell id="Kvp4EdlV-CzY8GOnAylV-4" value="" style="endArrow=classic;html=1;rounded=0;exitX=1;exitY=0.5;exitDx=0;exitDy=0;" edge="1" parent="1" source="Kvp4EdlV-CzY8GOnAylV-2" target="Kvp4EdlV-CzY8GOnAylV-3">
          <mxGeometry width="50" height="50" relative="1" as="geometry">
            <mxPoint x="80" y="110" as="sourcePoint" />
            <mxPoint x="130" y="60" as="targetPoint" />
          </mxGeometry>
        </mxCell>
        <mxCell id="Kvp4EdlV-CzY8GOnAylV-5" value="starts" style="edgeLabel;html=1;align=center;verticalAlign=middle;resizable=0;points=[];" vertex="1" connectable="0" parent="Kvp4EdlV-CzY8GOnAylV-4">
          <mxGeometry x="-0.1603" y="-8" relative="1" as="geometry">
            <mxPoint as="offset" />
          </mxGeometry>
        </mxCell>
        <mxCell id="Kvp4EdlV-CzY8GOnAylV-7" value="" style="endArrow=classic;html=1;rounded=0;" edge="1" parent="1">
          <mxGeometry width="50" height="50" relative="1" as="geometry">
            <mxPoint x="150" y="180" as="sourcePoint" />
            <mxPoint x="220" y="150" as="targetPoint" />
          </mxGeometry>
        </mxCell>
        <mxCell id="Kvp4EdlV-CzY8GOnAylV-8" value="sends Log Messages" style="text;html=1;align=center;verticalAlign=middle;resizable=0;points=[];autosize=1;strokeColor=none;fillColor=none;" vertex="1" parent="1">
          <mxGeometry x="90" y="130" width="140" height="30" as="geometry" />
        </mxCell>
        <mxCell id="Kvp4EdlV-CzY8GOnAylV-13" value="&amp;lt;&amp;lt;actor&amp;gt;&amp;gt;&lt;br&gt;&lt;br&gt;&lt;b&gt;CLI&lt;/b&gt;" style="html=1;align=center;verticalAlign=middle;dashed=0;whiteSpace=wrap;" vertex="1" parent="1">
          <mxGeometry x="741" y="170" width="160" height="70" as="geometry" />
        </mxCell>
        <mxCell id="Kvp4EdlV-CzY8GOnAylV-18" value="LoggerViewer Server Kontext" style="text;html=1;align=center;verticalAlign=middle;resizable=0;points=[];autosize=1;strokeColor=none;fillColor=none;" vertex="1" parent="1">
          <mxGeometry x="480" y="48" width="180" height="30" as="geometry" />
        </mxCell>
      </root>
    </mxGraphModel>
  </diagram>
</mxfile>
